<?xml version="1.0" standalone="no"?>
<!DOCTYPE svg PUBLIC "-//W3C//DTD SVG 20010904//EN"
 "http://www.w3.org/TR/2001/REC-SVG-20010904/DTD/svg10.dtd">
<svg version="1.0" xmlns="http://www.w3.org/2000/svg"
 width="512.000000pt" height="512.000000pt" viewBox="0 0 512.000000 512.000000"
 preserveAspectRatio="xMidYMid meet">
<metadata>
Created by potrace 1.11, written by Peter Selinger 2001-2013
</metadata>
<g transform="translate(0.000000,512.000000) scale(0.100000,-0.100000)"
fill="#000000" stroke="none">
<path d="M1741 4659 c-148 -29 -275 -142 -334 -298 -21 -55 -22 -67 -25 -928
l-3 -873 -87 0 -87 0 -30 41 c-59 80 -184 157 -297 184 -87 20 -370 20 -457 0
-188 -45 -339 -189 -398 -380 -16 -52 -18 -96 -18 -340 0 -276 1 -281 26 -351
66 -180 207 -309 389 -355 37 -9 114 -14 235 -14 157 0 189 3 250 22 100 32
189 88 254 160 l56 63 111 0 112 0 36 -106 c171 -493 579 -866 1083 -988 635
-153 1273 100 1640 651 74 112 154 274 189 386 l18 57 81 0 c71 0 90 4 143 31
111 55 154 128 160 271 4 84 7 98 21 98 10 0 28 -12 42 -26 l24 -26 5 -416 c5
-403 6 -418 27 -457 11 -22 32 -50 45 -62 31 -29 106 -63 141 -63 l27 0 0 80
c0 71 -2 80 -18 80 -10 0 -28 10 -40 23 -20 22 -21 31 -24 432 -3 449 -4 452
-66 519 -32 34 -116 76 -154 76 l-28 0 0 85 c0 103 -24 174 -77 229 -45 47
-118 82 -190 91 l-53 7 0 826 c0 492 -4 855 -10 897 -28 192 -179 345 -375
377 -199 33 -404 -91 -482 -292 -14 -38 -18 -95 -22 -372 l-6 -327 -55 35
c-147 93 -341 88 -487 -12 -29 -20 -64 -51 -78 -70 l-26 -34 -54 54 c-145 146
-372 171 -545 62 l-55 -35 -5 327 c-5 280 -8 333 -23 372 -29 73 -62 122 -119
176 -107 101 -244 141 -387 113z m195 -173 c68 -32 115 -75 144 -133 34 -68
41 -219 38 -862 l-3 -526 -195 -3 c-107 -2 -237 0 -288 3 l-93 7 3 656 3 657
24 53 c28 63 103 134 164 155 65 24 143 21 203 -7z m2177 8 c60 -20 135 -88
167 -150 l25 -49 3 -867 3 -868 -286 0 -285 0 0 863 c0 844 1 863 21 907 66
146 210 213 352 164z m-1448 -899 c65 -27 113 -73 144 -137 l31 -63 2 -215 3
-215 -285 0 -285 0 3 215 2 215 33 65 c25 51 44 73 87 102 81 56 181 68 265
33z m741 -5 c55 -23 120 -90 147 -149 20 -43 22 -65 25 -315 3 -222 1 -267
-10 -260 -7 4 -24 15 -38 24 -14 9 -50 27 -80 41 -50 22 -72 24 -250 29 l-195
5 3 215 c3 183 7 221 23 258 65 150 227 216 375 152z m-1 -814 c236 -111 221
-429 -25 -527 -28 -11 -154 -15 -632 -19 -660 -6 -631 -2 -631 -69 0 -50 26
-78 90 -95 302 -84 526 -245 637 -461 40 -78 76 -205 76 -271 0 -72 3 -74 91
-74 l79 0 -6 73 c-4 39 -16 111 -28 160 -12 48 -20 90 -17 92 2 3 272 5 599 5
l594 0 -7 -27 c-11 -46 -70 -179 -115 -256 -270 -472 -808 -751 -1326 -688
-546 67 -989 420 -1165 926 -66 193 -79 326 -79 858 l0 397 908 0 907 0 50
-24z m-2493 -168 c68 -31 138 -94 173 -153 49 -85 57 -143 53 -413 l-3 -247
-31 -65 c-35 -75 -106 -151 -173 -184 -68 -35 -137 -46 -281 -46 -71 0 -153 5
-182 11 -149 32 -265 148 -297 297 -17 83 -14 475 4 547 33 123 110 210 234
262 53 22 66 23 251 21 188 -3 197 -4 252 -30z m471 -485 c4 -153 11 -299 15
-325 l9 -48 -62 0 -62 0 9 58 c11 66 5 548 -6 575 -7 15 -2 17 42 17 l49 0 6
-277z m3188 256 c55 -39 59 -57 59 -299 0 -237 -6 -272 -51 -304 -21 -14 -100
-16 -825 -16 l-802 0 -55 68 c-61 76 -154 160 -237 215 l-55 37 377 0 c341 0
382 2 437 19 120 37 226 130 279 242 l27 59 408 0 c398 0 410 -1 438 -21z"/>
<path d="M330 2400 l0 -80 75 0 75 0 0 80 0 80 -75 0 -75 0 0 -80z"/>
<path d="M820 2400 l0 -80 75 0 75 0 0 80 0 80 -75 0 -75 0 0 -80z"/>
<path d="M570 2235 l0 -75 80 0 80 0 0 75 0 75 -80 0 -80 0 0 -75z"/>
<path d="M330 2070 l0 -80 75 0 75 0 0 80 0 80 -75 0 -75 0 0 -80z"/>
<path d="M820 2070 l0 -80 75 0 75 0 0 80 0 80 -75 0 -75 0 0 -80z"/>
<path d="M570 1910 l0 -80 80 0 80 0 0 80 0 80 -80 0 -80 0 0 -80z"/>
<path d="M330 1750 l0 -80 75 0 75 0 0 80 0 80 -75 0 -75 0 0 -80z"/>
<path d="M820 1750 l0 -80 75 0 75 0 0 80 0 80 -75 0 -75 0 0 -80z"/>
</g>
</svg>
